# File created by Blade
# Date/Time:  Mon Sep 22 16:45:27 2014
# Frame Rate: 120.000 fps
#------------------------------------------------------
:FULLY-SPECIFIED
:DEGREES
3510
root 3.824923 40.119322 -0.876590 50.614772 21.460053 63.995162
RightUpLeg -13.026270 -23.945632 -49.523652
RightLeg 16.748266 -0.000000 -0.000000
RightFoot -22.285876 -20.209845 19.426432
RightToeBase 5.575534 -0.000000 -0.000000
LeftUpLeg -8.137822 7.088145 24.389035
LeftLeg 15.111827 -0.000000 -0.000000
LeftFoot 13.204167 34.556155 -34.235755
LeftToeBase 8.808637 -0.000000 -0.000000
Spine 4.048658 -12.624067 -16.124386
RightShoulder -10.556549 -10.822273 -30.337559
RightArm -30.198239 78.199329 23.005807
RightForeArm -9.132699 -0.000000 146.002332
RightHand -7.518844 -0.000000 -25.986666
RightHandThumb1 -24.326973 -0.000000 -32.862282
LeftShoulder -27.257253 30.077691 -16.395546
LeftArm 27.056662 -4.538389 -60.074668
LeftForeArm 37.807654 0.000000 97.949724
LeftHand -12.445679 -0.000000 -3.567046
LeftHandThumb1 -26.253704 0.000000 33.147579
Head -13.080391 -25.819322 -17.105338
3511
root 3.831403 40.128720 -0.883470 50.537522 21.289707 63.945599
RightUpLeg -13.091209 -23.852985 -49.601827
RightLeg 16.666302 -0.000000 -0.000000
RightFoot -22.180831 -20.203982 19.370159
RightToeBase 5.577731 -0.000000 -0.000000
LeftUpLeg -8.288830 7.070857 24.183390
LeftLeg 15.938540 -0.000000 -0.000000
LeftFoot 12.676855 34.526359 -35.109699
LeftToeBase 10.210170 -0.000000 -0.000000
Spine 4.132470 -12.622861 -16.254365
RightShoulder -10.545316 -10.849589 -30.328943
RightArm -30.069867 78.120708 22.994484
RightForeArm -8.947992 0.000000 145.867618
RightHand -7.383673 -0.000000 -26.271804
RightHandThumb1 -24.326973 -0.000000 -32.862282
LeftShoulder -27.344683 30.191082 -16.375308
LeftArm 26.944175 -4.568829 -60.103368
LeftForeArm 37.821233 0.000000 97.913536
LeftHand -12.293874 -0.000000 -3.738448
LeftHandThumb1 -26.253704 0.000000 33.147579
Head -12.919134 -25.826406 -17.124678
3512
root 3.842728 40.138493 -0.887331 50.458921 21.140872 63.951330
RightUpLeg -13.083825 -23.805624 -49.729636
RightLeg 16.595584 -0.000000 -0.000000
RightFoot -22.068050 -20.159407 19.312567
RightToeBase 5.500168 -0.000000 -0.000000
LeftUpLeg -8.366983 7.121878 23.948627
LeftLeg 16.562661 -0.000000 -0.000000
LeftFoot 11.908540 34.534960 -36.358890
LeftToeBase 11.820254 -0.000000 -0.000000
Spine 4.246071 -12.672153 -16.402897
RightShoulder -10.547321 -10.872308 -30.325242
RightArm -29.899928 78.032655 23.030415
RightForeArm -8.921174 0.000000 145.742918
RightHand -7.519349 0.000000 -25.925557
RightHandThumb1 -24.326973 -0.000000 -32.862282
LeftShoulder -27.436652 30.273555 -16.384321
LeftArm 26.798172 -4.617848 -60.104767
LeftForeArm 37.883716 -0.000000 97.863440
LeftHand -12.428435 0.000000 -3.685607
LeftHandThumb1 -26.253704 0.000000 33.147579
Head -12.812713 -25.847247 -17.166920
3513
root 3.854394 40.146691 -0.888252 50.384001 21.026602 63.955258
RightUpLeg -13.056994 -23.770056 -49.831898
RightLeg 16.526290 -0.000000 -0.000000
RightFoot -21.973980 -20.122262 19.258742
RightToeBase 5.473036 -0.000000 -0.000000
LeftUpLeg -8.372204 7.199359 23.742944
LeftLeg 16.958440 -0.000000 -0.000000
LeftFoot 11.254247 34.497191 -37.516425
LeftToeBase 13.195505 -0.000000 -0.000000
Spine 4.337908 -12.738005 -16.518386
RightShoulder -10.520124 -10.832186 -30.310700
RightArm -30.126665 77.860706 22.648560
RightForeArm -8.762375 -0.000000 145.615278
RightHand -7.563782 -0.000000 -25.952471
RightHandThumb1 -24.326973 -0.000000 -32.862282
LeftShoulder -27.501419 30.345563 -16.377143
LeftArm 26.656342 -4.691079 -60.167944
LeftForeArm 37.919137 -0.000000 97.801056
LeftHand -12.279425 -0.000000 -3.831934
LeftHandThumb1 -26.253704 0.000000 33.147579
Head -12.679434 -25.846631 -17.233504
